<?xml version="1.0" encoding="UTF-8" standalone="no"?>
<!-- Created with Inkscape (http://www.inkscape.org/) -->
<svg
   xmlns:dc="http://purl.org/dc/elements/1.1/"
   xmlns:cc="http://web.resource.org/cc/"
   xmlns:rdf="http://www.w3.org/1999/02/22-rdf-syntax-ns#"
   xmlns:svg="http://www.w3.org/2000/svg"
   xmlns="http://www.w3.org/2000/svg"
   xmlns:sodipodi="http://sodipodi.sourceforge.net/DTD/sodipodi-0.dtd"
   xmlns:inkscape="http://www.inkscape.org/namespaces/inkscape"
   width="600"
   height="612.80035"
   id="svg2"
   sodipodi:version="0.32"
   inkscape:version="0.45.1"
   sodipodi:docbase="/home/pesasa/pic/inkscape/aop2008"
   sodipodi:docname="porixi-pingviini.svg"
   inkscape:output_extension="org.inkscape.output.svg.inkscape"
   version="1.0">
  <defs
     id="defs4" />
  <sodipodi:namedview
     id="base"
     pagecolor="#ffffff"
     bordercolor="#666666"
     borderopacity="1.0"
     gridtolerance="10000"
     guidetolerance="10"
     objecttolerance="10"
     inkscape:pageopacity="0.0"
     inkscape:pageshadow="2"
     inkscape:zoom="0.98994949"
     inkscape:cx="253.67115"
     inkscape:cy="326.25489"
     inkscape:document-units="px"
     inkscape:current-layer="layer1"
     inkscape:window-width="1224"
     inkscape:window-height="971"
     inkscape:window-x="48"
     inkscape:window-y="24" />
  <metadata
     id="metadata7">
    <rdf:RDF>
      <cc:Work
         rdf:about="">
        <dc:format>image/svg+xml</dc:format>
        <dc:type
           rdf:resource="http://purl.org/dc/dcmitype/StillImage" />
      </cc:Work>
    </rdf:RDF>
  </metadata>
  <g
     inkscape:label="Layer 1"
     inkscape:groupmode="layer"
     id="layer1"
     transform="translate(-51.517779,-127.4247)">
    <g
       id="g3230"
       transform="matrix(1.0343399,0,0,1.0343399,-1.7691161,-25.419264)">
      <path
         sodipodi:nodetypes="ccssssssscsccccccccccsccccccsssc"
         id="path2172"
         d="M 51.51778,242.21984 C 60.861691,213.93557 108.31898,206.78697 220.21325,193.73252 C 233.73295,150.06905 314.42538,147.71177 325.52166,147.77058 C 333.93382,147.81621 439.07581,162.03426 440.93158,219.74395 C 442.28474,261.82352 444.97259,332.24378 449.51788,342.22494 C 453.99568,352.05789 479.79217,381.3895 489.92398,410.91532 C 492.66247,418.89574 530.21678,476.2748 549.52299,537.942 C 557.18924,562.42929 561.45189,597.58181 575.78695,628.09811 C 584.12071,645.83891 594.47477,648.30116 606.84914,661.43315 C 623.9495,679.58046 631.59788,711.18316 631.59788,711.18316 C 608.73693,710.5733 610.21567,698.85258 588.16132,695.02072 C 579.57631,693.5291 553.67692,695.93123 518.96587,668.75676 C 477.03768,665 458.73621,672.76057 414.92015,672.03975 C 400.7415,677.30282 401.45145,687.27622 389.91888,695.77833 C 385.9058,689.71053 386.9453,682.06392 383.35289,675.07021 C 346.22074,678.57339 339.41125,706.97419 313.65236,733.15398 C 308.53754,720.04509 312.93284,711.93302 311.12698,701.83925 C 280.23073,717.17029 285.96193,725.00627 266.68027,740.22505 C 261.64138,715.4376 273.62465,712.48451 276.7818,702.8494 C 269.2878,704.85956 252.31113,714.50963 238.396,724.06261 C 237.55747,687.94556 277.87613,685.59263 288.14602,677.09051 C 292.54596,667.36962 276.37914,672.10938 268.45584,673.39813 C 246.81963,676.91735 212.08146,680.90738 164.65486,725.3253 C 160.50441,720.55638 158.40161,716.9434 161.62441,708.1527 C 155.72533,709.37924 150.96584,708.09867 141.92643,716.23392 C 140.93954,696.165 149.21598,696.06078 155.81603,687.69711 C 152.35299,685.22746 145.43618,691.58542 134.09775,698.30371 C 142.13983,660.81037 186.86307,664.20565 208.09142,655.62477 C 181.81316,568.02528 211.36397,458.46464 224.25387,418.99654 C 242.11017,364.32158 238.09057,329.82587 234.35539,314.95082 C 228.62201,292.11808 216.25631,273.95595 201.52543,266.4635 C 167.99687,249.41013 121.27871,238.90746 51.51778,242.21984 z "
         style="fill:#000000;fill-rule:evenodd;stroke:none;stroke-width:1px;stroke-linecap:butt;stroke-linejoin:miter;stroke-opacity:1" />
      <path
         sodipodi:nodetypes="cccssssccssssssssssssc"
         id="path2174"
         d="M 426.78945,292.72746 C 435.98674,329.1165 406.71378,342.56166 408.6067,375.0549 C 422.30097,369.66137 427.48934,361.12947 438.91128,363.94322 C 442.49604,366.17901 439.43082,371.21333 446.56627,383.2029 C 453.28516,394.49256 479.69587,446.98258 490.93414,471.52447 C 513.30917,520.38661 512.83958,540.00806 530.07755,581.12602 C 547.68321,623.12102 541.92355,647.13681 506.84404,650.32147 C 476.13888,653.109 434.12783,655.39317 424.26407,651.33162 C 418.04015,636.34769 433.86127,622.37391 441.43666,607.38998 C 450.2755,587.10275 434.66401,577.69065 458.35672,556.37728 C 464.51338,550.8389 457.63443,545.10743 453.05342,545.77068 C 437.39816,548.03729 435.61867,554.94835 431.0826,565.21611 C 428.32994,571.44697 431.30101,587.33643 427.04199,608.90521 C 425.56578,616.3811 417.92417,624.8872 414.75816,630.92686 C 409.96272,640.07489 408.97935,648.46765 401.2831,648.04862 C 391.57159,647.51987 394.40678,635.78689 391.02152,621.531 C 386.38591,602.00966 379.08836,575.07938 362.39223,545.77068 C 337.18298,501.51788 328.78687,497.10916 302.03561,473.03969 C 275.41717,449.08974 275.71619,418.29615 290.16632,400.05618 C 302.92858,383.94675 313.24029,372.90949 325.26009,363.36324 C 334.90461,355.70347 345.37899,349.54334 361.12954,338.43687 C 386.40336,320.61508 397.81679,324.79223 426.78945,292.72746 z "
         style="fill:#0e54f2;fill-opacity:1;fill-rule:evenodd;stroke:none;stroke-width:1px;stroke-linecap:butt;stroke-linejoin:miter;stroke-opacity:1" />
      <path
         sodipodi:nodetypes="csssssssssss"
         id="path2194"
         d="M 250.51784,399.29855 C 256.70477,385.56247 281.13128,394.21331 274.51403,408.26064 C 265.39909,427.61016 266.39,452.89758 276.68777,466.35291 C 282.79537,474.33325 290.2802,480.13388 298.03625,487.89838 C 310.02503,499.90022 327.61191,511.03271 338.03326,524.4271 C 358.92487,551.27875 370.7182,581.75527 380.2066,613.15286 C 383.5933,624.35962 389.30273,642.18703 383.61595,647.67148 C 380.06445,651.09662 346.18901,650.34173 331.09404,650.53399 C 285.56547,651.11065 260.57845,652.98872 244.74439,641.12905 C 233.13351,632.43252 212.77328,615.23587 212.09482,591.10838 C 211.58761,573.07063 210.77771,554.75225 211.27789,536.74837 C 212.59061,489.49777 231.59213,441.31692 250.51784,399.29855 z "
         style="fill:#fcf594;fill-opacity:1;fill-rule:evenodd;stroke:none;stroke-width:1px;stroke-linecap:butt;stroke-linejoin:miter;stroke-opacity:1" />
      <path
         id="path2217"
         d="M 303.71875,220.03125 C 300.89856,220.06371 298.02108,220.22551 295.09375,220.5 C 294.6493,222.51412 293.1409,224.89956 297.5,225.3125 C 302.92414,224.59601 307.84672,224.45855 312.375,224.84375 C 307.53007,227.73432 304.28126,233.01317 304.28125,239.0625 C 304.28125,248.20688 311.69936,255.625 320.84375,255.625 C 329.98813,255.625 337.40626,248.20687 337.40625,239.0625 C 337.40625,236.99171 337.00723,235.01514 336.3125,233.1875 C 339.20533,235.13589 341.87987,237.31134 344.34375,239.6875 C 348.45103,242.00305 348.58476,239.68974 348.75,237.40625 C 340.20088,225.51675 323.46008,219.80403 303.71875,220.03125 z M 320.3125,230.3125 C 323.3585,230.11924 326.32329,231.81345 327.96875,234.15625 C 332.93935,240.01483 326.19459,249.23406 318.96875,247.625 C 310.4142,246.62984 310.61009,233.81211 317.375,230.9375 C 318.07482,230.64013 318.84961,230.43513 319.6875,230.375 C 319.89078,230.34495 320.10943,230.32538 320.3125,230.3125 z M 317.375,230.9375 C 315.78898,231.6087 314.65625,233.20161 314.65625,235.03125 C 314.65625,237.47077 316.65422,239.43749 319.09375,239.4375 C 321.53327,239.4375 323.5,237.47076 323.5,235.03125 C 323.5,232.59173 321.53325,230.59375 319.09375,230.59375 C 318.48387,230.59375 317.90367,230.71377 317.375,230.9375 z "
         style="opacity:1;fill:#c2bb88;fill-opacity:1;stroke:none;stroke-width:4;stroke-linecap:butt;stroke-miterlimit:4;stroke-dasharray:none;stroke-opacity:1" />
      <path
         sodipodi:nodetypes="cssss"
         id="path3207"
         d="M 255.82113,253.07898 C 248.9156,237.87656 218.68827,239.18956 201.2729,239.44192 C 194.8286,239.53667 190.99264,242.03325 199.25259,246.76552 C 208.61565,252.12979 234.74689,256.38087 243.19423,257.11958 C 254.00333,258.06483 257.95713,257.78135 255.82113,253.07898 z "
         style="fill:#d1c673;fill-opacity:1;fill-rule:evenodd;stroke:none;stroke-width:1px;stroke-linecap:butt;stroke-linejoin:miter;stroke-opacity:1" />
      <path
         sodipodi:nodetypes="cccccc"
         id="path3209"
         d="M 294.59561,215.3206 C 291.77454,214.80317 284.50117,216.85856 286.87765,219.06299 C 289.65753,221.48516 297.56357,217.38588 301.65254,218.39407 C 321.09038,217.62853 338.66292,218.98567 354.81515,235.87549 C 357.04864,238.47605 359.59176,237.39633 359.54231,234.58663 C 339.01826,214.64485 320.13154,215.49431 294.59561,215.3206 z "
         style="fill:#322d1f;fill-opacity:1;fill-rule:evenodd;stroke:none;stroke-width:1px;stroke-linecap:butt;stroke-linejoin:miter;stroke-opacity:1" />
    </g>
  </g>
</svg>
